#!OML:ASF H:\IndianDance\Patient Classification 1\Patient 1\Session 1\dancer.ASF
:FULLY-SPECIFIED
:DEGREES
2161
root 20.6186 14.0658 -8.64401 -172.725 28.1213 -178.328
lowerback 12.8269 2.67473 1.39784
upperback -10.9581 3.9167 -5.64408
thorax -19.6215 1.23636 -8.77961
lowerneck -11.8815 -12.908 -12.326
upperneck -7.26012 -14.7684 6.39987
head 1.16555 -6.62884 3.34468
rclavicle -9.54166e-015 3.33958e-014
rhumerus -8.00443 35.4907 -14.2964
rradius 80.737
rwrist 2.91195
rhand -29.3052 28.202
rfingers 7.12502
rthumb -2.64644 -1.76134
lclavicle -9.54166e-015 3.33958e-014
lhumerus -23.4656 -37.2945 -2.05028
lradius 46.4462
lwrist -2.33656
lhand -10.6673 0.405074
lfingers 7.12502
lthumb 15.341 -330.184
rfemur 118.14 204.028 -152.549
rtibia 52.1322
rfoot 161.088 -206.211
rtoes 13.185
lfemur -29.1527 15.6674 -20.0158
ltibia 63.2304
lfoot -34.7482 18.4425
ltoes 15.9767
2162
root 20.664 14.0204 -8.60332 -173.148 28.8454 -178.763
lowerback 12.7932 3.02837 0.76237
upperback -10.6992 4.24299 -5.511
thorax -19.2487 1.49625 -8.29482
lowerneck -12.1173 -12.5926 -11.9902
upperneck -6.45236 -14.4298 5.72798
head 1.35658 -6.51906 3.0624
rclavicle 2.98177e-014 -6.20208e-014
rhumerus -8.12947 38.4645 -16.6358
rradius 80.2814
rwrist 3.1996
rhand -24.2207 26.1507
rfingers 7.12502
rthumb 2.26417 -3.81702
lclavicle 2.98177e-014 -6.20208e-014
lhumerus -24.475 -39.386 -0.26238
lradius 50.0245
lwrist -1.07691
lhand -10.0081 -0.80479
lfingers 7.12502
lthumb 15.9758 -331.444
rfemur 116.086 204.525 -150.825
rtibia 56.82
rfoot 161.523 -206.287
rtoes 14.2429
lfemur -28.9414 16.2575 -20.2838
ltibia 63.3802
lfoot -35.3743 18.7202
ltoes 16.9766
2163
root 20.7205 13.9717 -8.56621 -173.629 29.3521 -179.311
lowerback 12.637 3.34768 0.0264505
upperback -10.3892 4.50432 -5.39767
thorax -18.7575 1.74361 -7.74138
lowerneck -12.336 -12.297 -11.6548
upperneck -5.71496 -14.1078 5.12968
head 1.53313 -6.41299 2.80794
rclavicle 5.36719e-014 -3.02153e-014
rhumerus -8.17606 41.473 -18.715
rradius 80.5364
rwrist 4.08048
rhand -19.7749 24.8923
rfingers 7.12502
rthumb 6.55713 -4.98621
lclavicle 5.36719e-014 -3.02153e-014
lhumerus -25.3047 -41.4123 1.5298
lradius 53.8901
lwrist 0.542227
lhand -9.09794 -1.91974
lfingers 7.12502
lthumb 16.8522 -332.631
rfemur 114.352 205.107 -149.29
rtibia 61.3304
rfoot 162.139 -206.236
rtoes 15.7627
lfemur -28.7635 16.7719 -20.4701
ltibia 63.6352
lfoot -35.5965 18.8439
ltoes 16.657
2164
root 20.7872 13.9224 -8.53306 -174.15 29.6224 -179.965
lowerback 12.3615 3.61599 -0.785702
upperback -10.0358 4.68886 -5.3082
thorax -18.1616 1.9658 -7.1372
lowerneck -12.4935 -12.0205 -11.3292
upperneck -5.0966 -13.8071 4.63652
head 1.67449 -6.31086 2.59552
rclavicle 4.83047e-014 -3.49861e-014
rhumerus -8.09886 44.5981 -20.5052
rradius 81.4716
rwrist 5.41109
rhand -16.3517 24.4599
rfingers 7.12502
rthumb 9.86089 -5.28922
lclavicle 4.83047e-014 -3.49861e-014
lhumerus -25.9487 -43.3902 3.27888
lradius 58.0435
lwrist 2.50845
lhand -8.03542 -2.93284
lfingers 7.12502
lthumb 17.8748 -333.734
rfemur 112.95 205.849 -147.931
rtibia 65.5389
rfoot 163.218 -205.925
rtoes 17.2412
lfemur -28.6268 17.2641 -20.6255
ltibia 63.9482
lfoot -35.5889 18.7353
ltoes 15.7288
2165
root 20.8637 13.8757 -8.50356 -174.691 29.6575 -180.661
lowerback 12.0103 3.82347 -1.62903
upperback -9.65326 4.79787 -5.22397
thorax -17.5061 2.15309 -6.49434
lowerneck -12.5667 -11.764 -11.0201
upperneck -4.58895 -13.5356 4.25012
head 1.77961 -6.21748 2.42604
rclavicle 1.19271e-014 -7.95139e-015
rhumerus -7.84561 47.8613 -21.9852
rradius 83.0488
rwrist 6.95417
rhand -14.0624 24.6793
rfingers 7.12502
rthumb 12.069 -4.95263
lclavicle 1.19271e-014 -7.95139e-015
lhumerus -26.3975 -45.341 4.94853
lradius 62.4708
lwrist 4.73318
lhand -6.94516 -3.79394
lfingers 7.12502
lthumb 18.9236 -334.694
rfemur 111.942 206.769 -146.715
rtibia 69.317
rfoot 164.795 -205.205
rtoes 18.1333
lfemur -28.4912 17.8342 -20.7404
ltibia 64.2474
lfoot -35.4452 18.4816
ltoes 14.4471
2166
root 20.948 13.8349 -8.47727 -175.234 29.4821 -181.353
lowerback 11.6297 3.96649 -2.46031
upperback -9.26252 4.83714 -5.13472
thorax -16.8419 2.29906 -5.83635
lowerneck -12.5572 -11.5363 -10.7402
upperneck -4.14871 -13.3084 3.9729
head 1.86467 -6.14233 2.29915
rclavicle 8.74653e-015 2.06736e-014
rhumerus -7.34291 51.2094 -23.123
rradius 85.1744
rwrist 8.53952
rhand -12.9499 25.472
rfingers 7.12502
rthumb 13.1415 -4.09389
lclavicle 8.74653e-015 2.06736e-014
lhumerus -26.6143 -47.2981 6.48514
lradius 67.1379
lwrist 7.13335
lhand -5.88171 -4.47497
lfingers 7.12502
lthumb 19.9461 -335.479
rfemur 111.384 207.865 -145.63
rtibia 72.547
rfoot 166.637 -203.988
rtoes 18.4276
lfemur -28.3193 18.4971 -20.7931
ltibia 64.476
lfoot -35.2788 18.0365
ltoes 13.2782
2167
root 21.038 13.8038 -8.4536 -175.76 29.1243 -181.98
lowerback 11.2745 4.04889 -3.22436
upperback -8.88164 4.81984 -5.02591
thorax -16.2183 2.40156 -5.18994
lowerneck -12.4543 -11.3354 -10.4766
upperneck -3.7447 -13.1289 3.78233
head 1.9345 -6.08962 2.20444
rclavicle -9.22361e-014 -3.18055e-014
rhumerus -6.52839 54.4712 -23.9071
rradius 87.7398
rwrist 9.96913
rhand -12.7259 26.791
rfingers 7.12502
rthumb 13.3574 -2.76085
lclavicle -9.22361e-014 -3.18055e-014
lhumerus -26.5523 -49.2613 7.83536
lradius 72.012
lwrist 9.58223
lhand -4.86655 -4.96951
lfingers 7.12502
lthumb 20.9216 -336.078
rfemur 111.323 209.104 -144.679
rtibia 75.1294
rfoot 168.461 -202.329
rtoes 18.2145
lfemur -28.0507 19.2059 -20.7233
ltibia 64.5758
lfoot -35.0941 17.3897
ltoes 12.2324
